<svg id="Layer_1" data-name="Layer 1" xmlns="http://www.w3.org/2000/svg" viewBox="0 0 150 150"><metadata><?xpacket begin="﻿" id="W5M0MpCehiHzreSzNTczkc9d"?>
<x:xmpmeta xmlns:x="adobe:ns:meta/" x:xmptk="Adobe XMP Core 6.0-c002 79.164519, 2020/08/25-17:54:00        ">
   <rdf:RDF xmlns:rdf="http://www.w3.org/1999/02/22-rdf-syntax-ns#">
      <rdf:Description rdf:about=""
            xmlns:dc="http://purl.org/dc/elements/1.1/"
            xmlns:tiff="http://ns.adobe.com/tiff/1.0/"
            xmlns:ns1="http://ns.accenture.com/1.0/">
         <dc:modified>2022-08-13T11:21:37.210Z</dc:modified>
         <dc:format>image/svg+xml</dc:format>
         <tiff:ImageLength>150</tiff:ImageLength>
         <tiff:ImageWidth>150</tiff:ImageWidth>
         <ns1:reviewDate>2023-01-21T09:44:55.416Z</ns1:reviewDate>
      </rdf:Description>
   </rdf:RDF>
</x:xmpmeta>
                                                                                                    
                                                                                                    
                                                                                                    
                                                                                                    
                                                                                                    
                                                                                                    
                                                                                                    
                                                                                                    
                                                                                                    
                                                                                                    
                                                                                                    
                                                                                                    
                                                                                                    
                                                                                                    
                                                                                                    
                                                                                                    
                                                                                                    
                                                                                                    
                                                                            
<?xpacket end="w"?></metadata>
<defs><style>.cls-1{fill:#a100ff;fill-rule:evenodd;}</style></defs><path class="cls-1" d="M65,138.28h42.19l5.27-29.22c1-4.31,0-9.58-4.31-11L82.7,89.42a3.23,3.23,0,0,1-1.92-2.87V52.06A5.53,5.53,0,0,0,75,46.32a6.18,6.18,0,0,0-5.76,5.74v63.23a3.23,3.23,0,0,1-1.91,2.87c-1.44.48-2.4,0-3.36-1.44C53,99.48,47.7,98,43.38,98c-1,0-1,.48-1.43.48-.48,1.44,0,4.79.95,6.71ZM109.55,144h-46a2.64,2.64,0,0,1-2.4-1.44l-23-34.49c-1.92-2.87-2.88-8.14-1-12a6.42,6.42,0,0,1,6.23-3.83c6.24,0,12,2.39,20.14,13.89V52.06a11.51,11.51,0,0,1,23,0V84.63L110,92.3c7.67,2.39,9.59,11,8.15,17.72l-5.76,31.61A2.68,2.68,0,0,1,109.55,144ZM118,51.88H100.82A3,3,0,0,1,98,49.14a3,3,0,0,1,2.87-2.75H118a2.75,2.75,0,1,1,0,5.49ZM95,34.75a3.64,3.64,0,0,1-1.92-1,2.93,2.93,0,0,1,0-3.85l11.53-11.53a2.26,2.26,0,0,1,3.85,0,2.25,2.25,0,0,1,0,3.84L96.94,33.79A2.49,2.49,0,0,1,95,34.75ZM77.91,28.93A3.11,3.11,0,0,1,75,26.06V8.84A3.11,3.11,0,0,1,77.91,6a2.78,2.78,0,0,1,2.91,2.87V26.06A2.78,2.78,0,0,1,77.91,28.93ZM54.82,34.75a3.64,3.64,0,0,1-1.92-1L41.37,22.25a2.92,2.92,0,0,1,0-3.84,2.25,2.25,0,0,1,3.84,0L56.75,29.94a2.26,2.26,0,0,1,0,3.85A2.5,2.5,0,0,1,54.82,34.75ZM49.18,51.88H32a3,3,0,0,1-2.87-2.74A3,3,0,0,1,32,46.39H49.18a2.75,2.75,0,1,1,0,5.49Z"/></svg>